# xmcd
#
# Track frame offsets:
#	182
#	8630
#	19937
#	30715
#	35890
#	46095
#	57480
#	64650
#	75760
#	86430
#	97382
#	108410
#	120820
#	132242
#	140180
#	151370
#	159625
#	168962
#	177700
#	189657
#	199415
#
# Disc length: 2762 seconds
#
# Revision: 0
# Processed by: cddbd v1.5.1PL0 Copyright (c) Steve Scherf et al.
# Submitted via: audiograbber 1.83.01
#
DISCID=200ac815
DTITLE=Rusty and Doug Kershaw with Wiley Barkdull - The Legendary Jay Miller Sess
DTITLE=ions
DYEAR=1991
DGENRE=Cajun
TTITLE0=Let's Stay Together
TTITLE1=Mr. Juke Box
TTITLE2=Knock Knock
TTITLE3=Wiley's Blues
TTITLE4=Kary-On-Boogie
TTITLE5=I Have A Feeling It Could Be You
TTITLE6=Rattlesnake
TTITLE7=Nothing Matters Dear
TTITLE8=I Wanna Wanna
TTITLE9=So Lovely Baby
TTITLE10=Stop Look And Listen
TTITLE11=I'm In Love
TTITLE12=What Will You Do
TTITLE13=I Gotta Brand New Baby
TTITLE14=You Ain't No Buddy Of Mine
TTITLE15=I Understand
TTITLE16=Let's Do It Anyway
TTITLE17=Please Make Up Your Mind
TTITLE18=Can I Be Dreaming
TTITLE19=Hey You There
TTITLE20=Wildwood Flower
EXTD=
EXTT0=
EXTT1=
EXTT2=
EXTT3=
EXTT4=
EXTT5=
EXTT6=
EXTT7=
EXTT8=
EXTT9=
EXTT10=
EXTT11=
EXTT12=
EXTT13=
EXTT14=
EXTT15=
EXTT16=
EXTT17=
EXTT18=
EXTT19=
EXTT20=
PLAYORDER=
